<svg width="333" height="318" viewBox="0 0 333 318" fill="none" xmlns="http://www.w3.org/2000/svg">
<path d="M89.285 233.308H101.556L102.635 231.437C102.783 231.18 103.316 231 103.926 231H122.56C123.17 231 123.703 231.18 123.851 231.437L124.93 233.308H137.201C137.936 233.308 138.532 233.566 138.532 233.885V245.423C138.532 245.742 137.936 246 137.201 246H89.285C88.5499 246 87.954 245.742 87.954 245.423V233.885C87.954 233.566 88.5499 233.308 89.285 233.308V233.308ZM90.616 244.846H135.87V234.462H123.891C123.281 234.462 122.748 234.282 122.6 234.025L121.521 232.154H104.965L103.886 234.025C103.738 234.282 103.205 234.462 102.595 234.462H90.616V244.846Z" fill="white"/>
<path d="M113.243 233C119.592 233 124.738 235.462 124.738 238.5C124.738 241.538 119.592 244 113.243 244C106.894 244 101.748 241.538 101.748 238.5C101.756 235.464 106.897 233.004 113.243 233ZM113.243 242.778C118.181 242.778 122.183 240.863 122.183 238.5C122.183 236.137 118.181 234.222 113.243 234.222C108.305 234.222 104.302 236.137 104.302 238.5C104.308 240.861 108.307 242.775 113.243 242.778Z" fill="white"/>
<g filter="url(#filter0_d)">
<path d="M19.4898 80.9586H38.2267V92H5.18612V33.2798H19.4898V80.9586ZM66.2955 92.6692C61.7228 92.6692 57.5962 91.6933 53.9158 89.7415C50.291 87.7898 47.4192 85.0015 45.3001 81.3768C43.2368 77.7521 42.2052 73.514 42.2052 68.6625C42.2052 63.8667 43.2647 59.6565 45.3838 56.0318C47.5028 52.3513 50.4026 49.5352 54.083 47.5834C57.7635 45.6316 61.8901 44.6558 66.4628 44.6558C71.0355 44.6558 75.1621 45.6316 78.8426 47.5834C82.523 49.5352 85.4228 52.3513 87.5419 56.0318C89.6609 59.6565 90.7205 63.8667 90.7205 68.6625C90.7205 73.4582 89.633 77.6964 87.4582 81.3768C85.3392 85.0015 82.4115 87.7898 78.6753 89.7415C74.9948 91.6933 70.8682 92.6692 66.2955 92.6692ZM66.2955 80.2894C69.028 80.2894 71.3422 79.2856 73.2382 77.2781C75.19 75.2706 76.1659 72.3987 76.1659 68.6625C76.1659 64.9262 75.2179 62.0544 73.3219 60.0468C71.4816 58.0393 69.1953 57.0355 66.4628 57.0355C63.6746 57.0355 61.3603 58.0393 59.5201 60.0468C57.6799 61.9986 56.7598 64.8705 56.7598 68.6625C56.7598 72.3987 57.652 75.2706 59.4365 77.2781C61.2767 79.2856 63.563 80.2894 66.2955 80.2894ZM116.042 44.6558C119.332 44.6558 122.204 45.3249 124.658 46.6633C127.167 48.0016 129.091 49.7582 130.429 51.9331V45.3249H144.733V91.9164C144.733 96.2102 143.869 100.086 142.14 103.543C140.467 107.056 137.874 109.845 134.361 111.908C130.903 113.971 126.582 115.003 121.395 115.003C114.481 115.003 108.876 113.358 104.582 110.068C100.288 106.833 97.8348 102.428 97.2214 96.8515H111.358C111.804 98.636 112.863 100.03 114.536 101.034C116.209 102.093 118.273 102.623 120.726 102.623C123.682 102.623 126.024 101.759 127.753 100.03C129.537 98.3572 130.429 95.6526 130.429 91.9164V85.3082C129.035 87.4831 127.111 89.2675 124.658 90.6616C122.204 92 119.332 92.6692 116.042 92.6692C112.194 92.6692 108.709 91.6933 105.586 89.7415C102.463 87.734 99.9818 84.9179 98.1415 81.2932C96.357 77.6127 95.4648 73.3746 95.4648 68.5788C95.4648 63.7831 96.357 59.5728 98.1415 55.9481C99.9818 52.3234 102.463 49.5352 105.586 47.5834C108.709 45.6316 112.194 44.6558 116.042 44.6558ZM130.429 68.6625C130.429 65.0935 129.426 62.2774 127.418 60.2141C125.466 58.1508 123.068 57.1192 120.224 57.1192C117.38 57.1192 114.955 58.1508 112.947 60.2141C110.995 62.2216 110.019 65.0099 110.019 68.5788C110.019 72.1478 110.995 74.9918 112.947 77.1108C114.955 79.1741 117.38 80.2058 120.224 80.2058C123.068 80.2058 125.466 79.1741 127.418 77.1108C129.426 75.0475 130.429 72.2314 130.429 68.6625ZM162.275 40.4734C159.765 40.4734 157.702 39.7485 156.085 38.2986C154.523 36.7929 153.743 34.9527 153.743 32.7779C153.743 30.5473 154.523 28.7071 156.085 27.2572C157.702 25.7515 159.765 24.9987 162.275 24.9987C164.728 24.9987 166.736 25.7515 168.297 27.2572C169.914 28.7071 170.723 30.5473 170.723 32.7779C170.723 34.9527 169.914 36.7929 168.297 38.2986C166.736 39.7485 164.728 40.4734 162.275 40.4734ZM169.385 45.3249V92H155.081V45.3249H169.385ZM208.19 44.8231C213.655 44.8231 218.005 46.6075 221.239 50.1765C224.529 53.6896 226.174 58.5412 226.174 64.7311V92H211.954V66.6549C211.954 63.5321 211.146 61.1064 209.529 59.3776C207.912 57.6489 205.737 56.7846 203.004 56.7846C200.272 56.7846 198.097 57.6489 196.48 59.3776C194.863 61.1064 194.054 63.5321 194.054 66.6549V92H179.75V45.3249H194.054V51.5148C195.504 49.4515 197.456 47.8344 199.909 46.6633C202.363 45.4365 205.123 44.8231 208.19 44.8231Z" fill="white"/>
</g>
<g filter="url(#filter1_d)">
<g clip-path="url(#clip0)">
<path d="M302.761 80.4865H160V291.735H302.761V80.4865Z" fill="#535461"/>
<path d="M263.855 297.202L160 291.735V80.4869L263.855 75.0208V297.202Z" fill="#4B8AAF"/>
<path d="M255.174 197.525C255.884 197.525 256.46 196.949 256.46 196.239C256.46 195.529 255.884 194.953 255.174 194.953C254.464 194.953 253.888 195.529 253.888 196.239C253.888 196.949 254.464 197.525 255.174 197.525Z" fill="#535461"/>
<path d="M255.174 196.431L256.065 197.975L256.957 199.519H255.174H253.391L254.282 197.975L255.174 196.431Z" fill="#535461"/>
<path d="M268.357 297.201L261.996 297.181L262.247 75.0203H268.357V297.201Z" fill="#4B8AAF"/>
<g opacity="0.1">
<path opacity="0.1" d="M268.426 297.181H261.996L262.317 75H268.426V297.181Z" fill="white"/>
</g>
<path opacity="0.1" d="M255.174 191.095C257.482 191.095 259.354 189.223 259.354 186.915C259.354 184.606 257.482 182.735 255.174 182.735C252.865 182.735 250.994 184.606 250.994 186.915C250.994 189.223 252.865 191.095 255.174 191.095Z" fill="black"/>
<path d="M255.174 190.451C257.482 190.451 259.354 188.58 259.354 186.272C259.354 183.963 257.482 182.092 255.174 182.092C252.865 182.092 250.994 183.963 250.994 186.272C250.994 188.58 252.865 190.451 255.174 190.451Z" fill="#535461"/>
<path opacity="0.1" d="M176.983 80.1793V292.73" stroke="black" stroke-width="2" stroke-miterlimit="10"/>
<path opacity="0.1" d="M195.311 78.8932V293.373" stroke="black" stroke-width="2" stroke-miterlimit="10"/>
<path opacity="0.1" d="M213.638 77.9286V294.609" stroke="black" stroke-width="2" stroke-miterlimit="10"/>
<path opacity="0.1" d="M231.965 76.9639V295.945" stroke="black" stroke-width="2" stroke-miterlimit="10"/>
<path opacity="0.1" d="M250.293 75.9993V296.216" stroke="black" stroke-width="2" stroke-miterlimit="10"/>
<path d="M308.94 117.547C315.954 117.547 321.64 112.22 321.64 105.65C321.64 99.0794 315.954 93.7531 308.94 93.7531C301.925 93.7531 296.239 99.0794 296.239 105.65C296.239 112.22 301.925 117.547 308.94 117.547Z" fill="#2F2E41"/>
<path d="M271.963 179.764L268.748 184.265C268.748 184.265 253.314 187.481 259.102 192.304C264.89 197.127 273.249 187.802 273.249 187.802L277.751 182.014L271.963 179.764Z" fill="#FFB8B8"/>
<path d="M288.683 128.64C288.683 128.64 284.503 128.64 283.539 134.427C282.574 140.215 281.609 159.507 281.609 159.507C281.609 159.507 268.105 177.191 270.356 179.442C272.606 181.693 275.179 185.873 276.786 185.23C278.394 184.587 292.22 165.616 292.22 165.616L288.683 128.64Z" fill="#4B8AAF"/>
<path opacity="0.1" d="M288.683 128.64C288.683 128.64 284.503 128.64 283.539 134.427C282.574 140.215 281.609 159.507 281.609 159.507C281.609 159.507 268.105 177.191 270.356 179.442C272.606 181.693 275.179 185.873 276.786 185.23C278.394 184.587 292.22 165.616 292.22 165.616L288.683 128.64Z" fill="black"/>
<path d="M301.544 112.241C301.544 112.241 301.223 124.781 297.364 125.424C293.506 126.067 294.792 130.247 294.792 130.247C294.792 130.247 307.332 137.643 315.692 130.247L317.299 126.389C317.299 126.389 311.512 122.209 314.084 116.421L301.544 112.241Z" fill="#FFB8B8"/>
<path d="M280.002 189.41C280.002 189.41 261.031 224.779 268.105 235.711C275.179 246.643 285.789 269.151 287.397 269.151C289.004 269.151 298.007 264.649 297.364 261.755C296.721 258.861 287.075 237.319 284.503 235.389C281.931 233.46 283.217 228.316 283.538 227.994C283.86 227.672 294.471 210.631 294.471 210.631C294.471 210.631 294.149 237.64 295.435 241.82C296.721 246 295.114 275.903 296.721 277.189C298.329 278.475 305.724 280.726 307.01 278.797C308.296 276.867 312.155 247.608 309.583 240.855L314.406 194.554L280.002 189.41Z" fill="#2F2E41"/>
<path d="M297.364 275.26L289.326 290.05C289.326 290.05 277.751 298.41 285.789 299.696C293.828 300.982 298.651 297.767 298.651 297.767L305.724 292.623V277.832L297.364 275.26Z" fill="#2F2E41"/>
<path d="M286.432 266.9L290.612 276.867C290.612 276.867 292.22 281.047 290.612 282.012C289.005 282.976 284.503 288.764 287.397 289.407C287.979 289.521 288.571 289.58 289.164 289.583C291.573 289.623 293.966 289.176 296.199 288.268C298.431 287.359 300.456 286.009 302.153 284.297L304.76 281.69C304.76 281.69 295.831 261.129 295.954 261.281C296.078 261.434 286.432 266.9 286.432 266.9Z" fill="#2F2E41"/>
<path d="M309.583 119.958C315.62 119.958 320.515 115.064 320.515 109.026C320.515 102.988 315.62 98.0938 309.583 98.0938C303.545 98.0938 298.651 102.988 298.651 109.026C298.651 115.064 303.545 119.958 309.583 119.958Z" fill="#FFB8B8"/>
<path d="M315.853 124.299L312.476 127.675C312.476 127.675 302.187 131.533 297.364 127.675C297.364 127.675 299.133 123.977 299.133 124.299C299.133 124.62 285.146 126.71 283.86 132.498C282.574 138.286 284.825 148.253 284.825 148.253C284.825 148.253 275.822 190.696 279.359 191.661C282.895 192.625 316.013 200.663 315.692 194.554C315.37 188.445 318.264 163.365 318.264 163.365L329.518 141.823C329.518 141.823 327.91 134.749 324.052 132.498C320.193 130.247 315.853 124.299 315.853 124.299Z" fill="#4B8AAF"/>
<path d="M301.544 187.159L297.364 189.731C297.364 189.731 281.288 200.663 289.648 202.593C298.007 204.522 302.83 194.876 302.83 194.876L306.046 191.017L301.544 187.159Z" fill="#FFB8B8"/>
<path opacity="0.1" d="M325.338 139.893L328.232 142.787C328.232 142.787 330.161 169.796 326.302 175.262C322.444 180.728 304.76 195.519 303.795 194.554C302.83 193.59 296.721 188.767 298.007 188.124C299.294 187.481 316.394 169.613 316.394 169.613L315.049 144.716L325.338 139.893Z" fill="black"/>
<path d="M326.624 138.929L329.518 141.823C329.518 141.823 331.447 168.831 327.588 174.298C323.73 179.764 306.046 194.554 305.081 193.59C304.117 192.625 298.007 187.802 299.294 187.159C300.58 186.516 317.68 168.648 317.68 168.648L316.335 143.752L326.624 138.929Z" fill="#4B8AAF"/>
<path d="M305.061 93.4974C305.061 93.4974 301.345 92.1461 296.278 95.0177L298.98 95.6934C298.98 95.6934 294.927 96.0312 294.42 101.436H296.278C296.278 101.436 295.095 106.166 296.278 107.517L297.038 106.082L299.234 110.473L299.741 108.278L300.754 108.615L301.43 105.068C301.43 105.068 303.119 107.602 304.47 107.771V105.575C304.47 105.575 308.186 109.798 309.369 109.629L307.68 107.264L310.044 107.771L309.031 106.082L315.112 107.771L313.761 106.082L317.983 107.433L320.01 108.278C320.01 108.278 322.882 101.69 318.828 97.1291C314.774 92.5684 308.862 91.5549 305.061 93.4974Z" fill="#2F2E41"/>
</g>
</g>
<defs>
<filter id="filter0_d" x="1.18616" y="24.9987" width="228.988" height="98.0042" filterUnits="userSpaceOnUse" color-interpolation-filters="sRGB">
<feFlood flood-opacity="0" result="BackgroundImageFix"/>
<feColorMatrix in="SourceAlpha" type="matrix" values="0 0 0 0 0 0 0 0 0 0 0 0 0 0 0 0 0 0 127 0"/>
<feOffset dy="4"/>
<feGaussianBlur stdDeviation="2"/>
<feColorMatrix type="matrix" values="0 0 0 0 0 0 0 0 0 0 0 0 0 0 0 0 0 0 0.25 0"/>
<feBlend mode="normal" in2="BackgroundImageFix" result="effect1_dropShadow"/>
<feBlend mode="normal" in="SourceGraphic" in2="effect1_dropShadow" result="shape"/>
</filter>
<filter id="filter1_d" x="143" y="73" width="190" height="245" filterUnits="userSpaceOnUse" color-interpolation-filters="sRGB">
<feFlood flood-opacity="0" result="BackgroundImageFix"/>
<feColorMatrix in="SourceAlpha" type="matrix" values="0 0 0 0 0 0 0 0 0 0 0 0 0 0 0 0 0 0 127 0"/>
<feOffset dx="-7" dy="8"/>
<feGaussianBlur stdDeviation="5"/>
<feColorMatrix type="matrix" values="0 0 0 0 0 0 0 0 0 0 0 0 0 0 0 0 0 0 0.12 0"/>
<feBlend mode="normal" in2="BackgroundImageFix" result="effect1_dropShadow"/>
<feBlend mode="normal" in="SourceGraphic" in2="effect1_dropShadow" result="shape"/>
</filter>
<clipPath id="clip0">
<rect x="160" y="75" width="170" height="225" fill="white"/>
</clipPath>
</defs>
</svg>
