<svg width="34" height="31" viewBox="0 0 34 31" fill="none" xmlns="http://www.w3.org/2000/svg">
<g filter="url(#filter0_d)">
<path d="M20.116 12.6732C21.3701 13.9146 21.3701 15.9274 20.116 17.1689C18.8618 18.4103 16.8284 18.4103 15.5743 17.1689C14.3201 15.9274 14.3201 13.9146 15.5743 12.6732C16.8284 11.4317 18.8618 11.4317 20.116 12.6732Z" fill="white"/>
<path d="M27.4795 6.17895H25.2606L23.6541 3H12.0353L10.4303 6.18052L8.21458 6.18442C6.44813 6.18755 5.01015 7.61247 5.00863 9.36181L5 22.0729C5 23.8261 6.4403 25.2526 8.21148 25.2526H27.4795C29.2507 25.2526 30.691 23.8269 30.691 22.0737V9.35786C30.6909 7.60467 29.2506 6.17895 27.4795 6.17895ZM17.8451 21.2789C14.3035 21.2789 11.4221 18.4267 11.4221 14.921C11.4221 11.4153 14.3035 8.56311 17.8451 8.56311C21.3866 8.56311 24.268 11.4153 24.268 14.921C24.268 18.4267 21.3866 21.2789 17.8451 21.2789Z" fill="white"/>
</g>
<defs>
<filter id="filter0_d" x="0" y="0" width="33.691" height="30.2526" filterUnits="userSpaceOnUse" color-interpolation-filters="sRGB">
<feFlood flood-opacity="0" result="BackgroundImageFix"/>
<feColorMatrix in="SourceAlpha" type="matrix" values="0 0 0 0 0 0 0 0 0 0 0 0 0 0 0 0 0 0 127 0"/>
<feOffset dx="-1" dy="1"/>
<feGaussianBlur stdDeviation="2"/>
<feColorMatrix type="matrix" values="0 0 0 0 0 0 0 0 0 0 0 0 0 0 0 0 0 0 0.1 0"/>
<feBlend mode="normal" in2="BackgroundImageFix" result="effect1_dropShadow"/>
<feBlend mode="normal" in="SourceGraphic" in2="effect1_dropShadow" result="shape"/>
</filter>
</defs>
</svg>
