<svg width="33" height="36" viewBox="0 0 33 36" fill="none" xmlns="http://www.w3.org/2000/svg">
<g filter="url(#filter0_d)">
<path d="M11.2642 10.3952V11.1855C11.2642 12.4308 10.2426 13.4435 8.98633 13.4435H7.2779C6.02164 13.4435 5 12.4308 5 11.1855V10.3952C5 9.14984 6.02164 8.1371 7.2779 8.1371H8.98633C10.2426 8.1371 11.2642 9.14984 11.2642 10.3952ZM8.98633 20.5565H7.2779C6.02164 20.5565 5 21.5692 5 22.8145V23.6048C5 24.8502 6.02164 25.8629 7.2779 25.8629H8.98633C10.2426 25.8629 11.2642 24.8502 11.2642 23.6048V22.8145C11.2642 21.5692 10.2426 20.5565 8.98633 20.5565ZM30 5.70968V28.2903C30 29.7869 28.7762 31 27.2665 31H9.95444C8.44476 31 7.22096 29.7869 7.22096 28.2903V27.5943C7.22096 27.0954 7.62893 26.691 8.13212 26.691H9.25285C10.9038 26.691 12.242 25.3644 12.242 23.7279V22.6915C12.242 21.0549 10.9038 19.7283 9.25285 19.7283H8.13212C7.62893 19.7283 7.22096 19.3239 7.22096 18.8251V15.1749C7.22096 14.6761 7.62893 14.2717 8.13212 14.2717H9.25285C10.9038 14.2717 12.242 12.945 12.242 11.3085V10.2721C12.242 8.63557 10.9038 7.30895 9.25285 7.30895H8.13212C7.62893 7.30895 7.22096 6.90459 7.22096 6.40573V5.70968C7.22096 4.21315 8.44476 3 9.95444 3H27.2665C28.7762 3 30 4.21315 30 5.70968ZM16.6439 13.3018C16.6439 15.4899 18.4396 17.27 20.6469 17.27C22.8542 17.27 24.6499 15.4899 24.6499 13.3018C24.6499 11.1137 22.8542 9.33364 20.6469 9.33364C18.4396 9.33364 16.6439 11.1137 16.6439 13.3018ZM26.8394 21.4224C26.8394 20.4565 26.2648 19.5781 25.3753 19.1841C23.133 18.1918 23.1917 18.1883 22.9311 18.1883H18.3331C18.0744 18.1883 18.136 18.1897 15.889 19.1841C14.9994 19.5781 14.4248 20.4565 14.4248 21.4224V23.1984C14.4248 23.6974 14.8326 24.1016 15.336 24.1016H25.9282C26.4317 24.1016 26.8394 23.6974 26.8394 23.1984V21.4224Z" fill="white"/>
</g>
<defs>
<filter id="filter0_d" x="0" y="0" width="33" height="36" filterUnits="userSpaceOnUse" color-interpolation-filters="sRGB">
<feFlood flood-opacity="0" result="BackgroundImageFix"/>
<feColorMatrix in="SourceAlpha" type="matrix" values="0 0 0 0 0 0 0 0 0 0 0 0 0 0 0 0 0 0 127 0"/>
<feOffset dx="-1" dy="1"/>
<feGaussianBlur stdDeviation="2"/>
<feColorMatrix type="matrix" values="0 0 0 0 0 0 0 0 0 0 0 0 0 0 0 0 0 0 0.1 0"/>
<feBlend mode="normal" in2="BackgroundImageFix" result="effect1_dropShadow"/>
<feBlend mode="normal" in="SourceGraphic" in2="effect1_dropShadow" result="shape"/>
</filter>
</defs>
</svg>
