<svg width="40" height="38" viewBox="0 0 40 38" fill="none" xmlns="http://www.w3.org/2000/svg">
<g filter="url(#filter0_d)">
<path d="M35.4895 16.0951L21.5762 3.4174C20.9655 2.86085 20.0446 2.86091 19.4341 3.41734L5.52076 16.0952C5.03156 16.5409 4.86997 17.2278 5.10896 17.8449C5.34802 18.462 5.93007 18.8607 6.59188 18.8607H8.81408V31.5628C8.81408 32.0665 9.22242 32.4748 9.72603 32.4748H17.3522C17.8559 32.4748 18.2642 32.0665 18.2642 31.5628V23.8505H22.7463V31.5629C22.7463 32.0665 23.1546 32.4749 23.6582 32.4749H31.2841C31.7877 32.4749 32.196 32.0666 32.196 31.5629V18.8607H34.4186C35.0804 18.8607 35.6625 18.4619 35.9016 17.8449C36.1402 17.2277 35.9787 16.5409 35.4895 16.0951Z" fill="white"/>
<path d="M31.9578 4.82031H25.8333L32.8698 11.2183V5.73221C32.8698 5.22859 32.4615 4.82031 31.9578 4.82031Z" fill="white"/>
</g>
<defs>
<filter id="filter0_d" x="0" y="0" width="39.0103" height="37.4749" filterUnits="userSpaceOnUse" color-interpolation-filters="sRGB">
<feFlood flood-opacity="0" result="BackgroundImageFix"/>
<feColorMatrix in="SourceAlpha" type="matrix" values="0 0 0 0 0 0 0 0 0 0 0 0 0 0 0 0 0 0 127 0"/>
<feOffset dx="-1" dy="1"/>
<feGaussianBlur stdDeviation="2"/>
<feColorMatrix type="matrix" values="0 0 0 0 0 0 0 0 0 0 0 0 0 0 0 0 0 0 0.1 0"/>
<feBlend mode="normal" in2="BackgroundImageFix" result="effect1_dropShadow"/>
<feBlend mode="normal" in="SourceGraphic" in2="effect1_dropShadow" result="shape"/>
</filter>
</defs>
</svg>
