<svg width="38" height="38" viewBox="0 0 38 38" fill="none" xmlns="http://www.w3.org/2000/svg">
<g filter="url(#filter0_d)">
<g clip-path="url(#clip0)">
<path d="M19.7862 23.4511C21.7715 23.4511 23.4907 22.739 24.8953 21.3342C26.3 19.9295 27.012 18.2109 27.012 16.2253C27.012 14.2405 26.3 12.5216 24.8951 11.1165C23.4902 9.71205 21.7713 9 19.7862 9C17.8007 9 16.082 9.71205 14.6774 11.1167C13.2727 12.5213 12.5604 14.2402 12.5604 16.2253C12.5604 18.2109 13.2727 19.9298 14.6776 21.3344C16.0825 22.7388 17.8014 23.4511 19.7862 23.4511Z" fill="white"/>
<path d="M32.4294 32.0685C32.3889 31.4839 32.307 30.8463 32.1864 30.1729C32.0646 29.4945 31.9078 28.8532 31.7201 28.267C31.5263 27.6612 31.2626 27.0629 30.9367 26.4895C30.5984 25.8944 30.201 25.3762 29.7552 24.9498C29.2889 24.5037 28.7181 24.1451 28.058 23.8835C27.4002 23.6232 26.6712 23.4914 25.8914 23.4914C25.5852 23.4914 25.289 23.6171 24.717 23.9895C24.365 24.219 23.9532 24.4845 23.4937 24.7782C23.1007 25.0286 22.5683 25.2632 21.9107 25.4756C21.2692 25.6832 20.6178 25.7885 19.9748 25.7885C19.3319 25.7885 18.6807 25.6832 18.0385 25.4756C17.3816 25.2634 16.8492 25.0288 16.4567 24.7784C16.0014 24.4875 15.5894 24.222 15.2322 23.9892C14.6609 23.6168 14.3645 23.4912 14.0582 23.4912C13.2782 23.4912 12.5494 23.6232 11.8919 23.8837C11.2322 24.1449 10.6612 24.5035 10.1945 24.9501C9.74884 25.3767 9.35127 25.8947 9.01344 26.4895C8.68774 27.0629 8.42407 27.6609 8.22998 28.2672C8.04253 28.8534 7.88574 29.4945 7.76398 30.1729C7.64336 30.8454 7.56142 31.4832 7.5209 32.0692C7.48108 32.6432 7.46094 33.239 7.46094 33.8407C7.46094 35.4067 7.95876 36.6745 8.94043 37.6095C9.90997 38.5321 11.1929 39.0002 12.7529 39.0002H27.1981C28.7582 39.0002 30.0406 38.5323 31.0104 37.6095C31.9923 36.6752 32.4901 35.4072 32.4901 33.8405C32.4899 33.236 32.4695 32.6398 32.4294 32.0685Z" fill="white"/>
</g>
</g>
<defs>
<filter id="filter0_d" x="0" y="0" width="38" height="38" filterUnits="userSpaceOnUse" color-interpolation-filters="sRGB">
<feFlood flood-opacity="0" result="BackgroundImageFix"/>
<feColorMatrix in="SourceAlpha" type="matrix" values="0 0 0 0 0 0 0 0 0 0 0 0 0 0 0 0 0 0 127 0"/>
<feOffset dx="-1" dy="1"/>
<feGaussianBlur stdDeviation="2"/>
<feColorMatrix type="matrix" values="0 0 0 0 0 0 0 0 0 0 0 0 0 0 0 0 0 0 0.1 0"/>
<feBlend mode="normal" in2="BackgroundImageFix" result="effect1_dropShadow"/>
<feBlend mode="normal" in="SourceGraphic" in2="effect1_dropShadow" result="shape"/>
</filter>
<clipPath id="clip0">
<rect x="5" y="3" width="30" height="30" fill="white"/>
</clipPath>
</defs>
</svg>
